<mxfile host="app.diagrams.net" modified="2024-05-26T14:10:30.692Z" agent="Mozilla/5.0 (Windows NT 10.0; Win64; x64) AppleWebKit/537.36 (KHTML, like Gecko) Chrome/125.0.0.0 Safari/537.36" etag="5HzmWh8ZVxyygyrG4h-V" version="24.4.8" type="google">
  <diagram name="Page-1" id="e56a1550-8fbb-45ad-956c-1786394a9013">
    <mxGraphModel grid="1" page="0" gridSize="10" guides="1" tooltips="1" connect="1" arrows="1" fold="1" pageScale="1" pageWidth="1100" pageHeight="850" background="none" math="0" shadow="0">
      <root>
        <mxCell id="0" />
        <mxCell id="1" parent="0" />
        <mxCell id="Dggb_0L5YijJoXraUt78-34" value="" style="endArrow=none;html=1;edgeStyle=orthogonalEdgeStyle;rounded=0;exitX=1;exitY=0.517;exitDx=0;exitDy=0;entryX=0;entryY=0.5;entryDx=0;entryDy=0;exitPerimeter=0;" edge="1" parent="1" source="2KOE_bNOq0SQkTFNPbul-5">
          <mxGeometry relative="1" as="geometry">
            <mxPoint x="369.9999999999999" y="43" as="sourcePoint" />
            <mxPoint x="480" y="44" as="targetPoint" />
            <Array as="points">
              <mxPoint x="480" y="44" />
            </Array>
          </mxGeometry>
        </mxCell>
        <mxCell id="Dggb_0L5YijJoXraUt78-35" value="1" style="edgeLabel;resizable=0;html=1;align=left;verticalAlign=bottom;labelBackgroundColor=none;" connectable="0" vertex="1" parent="Dggb_0L5YijJoXraUt78-34">
          <mxGeometry x="-1" relative="1" as="geometry">
            <mxPoint x="4" y="1" as="offset" />
          </mxGeometry>
        </mxCell>
        <mxCell id="Dggb_0L5YijJoXraUt78-36" value="1" style="edgeLabel;resizable=0;html=1;align=right;verticalAlign=bottom;labelBackgroundColor=none;" connectable="0" vertex="1" parent="Dggb_0L5YijJoXraUt78-34">
          <mxGeometry x="1" relative="1" as="geometry">
            <mxPoint x="-4" y="1" as="offset" />
          </mxGeometry>
        </mxCell>
        <mxCell id="Dggb_0L5YijJoXraUt78-43" value="" style="endArrow=none;html=1;edgeStyle=orthogonalEdgeStyle;rounded=0;entryX=0.5;entryY=0;entryDx=0;entryDy=0;exitX=0.498;exitY=0.994;exitDx=0;exitDy=0;exitPerimeter=0;" edge="1" parent="1" source="2KOE_bNOq0SQkTFNPbul-17" target="2KOE_bNOq0SQkTFNPbul-20">
          <mxGeometry relative="1" as="geometry">
            <mxPoint x="830" y="170" as="sourcePoint" />
            <mxPoint x="827.86" y="348.19" as="targetPoint" />
            <Array as="points">
              <mxPoint x="830" y="170" />
              <mxPoint x="830" y="170" />
            </Array>
          </mxGeometry>
        </mxCell>
        <mxCell id="Dggb_0L5YijJoXraUt78-44" value="1" style="edgeLabel;resizable=0;html=1;align=left;verticalAlign=bottom;labelBackgroundColor=none;" connectable="0" vertex="1" parent="Dggb_0L5YijJoXraUt78-43">
          <mxGeometry x="-1" relative="1" as="geometry">
            <mxPoint x="2" y="22" as="offset" />
          </mxGeometry>
        </mxCell>
        <mxCell id="Dggb_0L5YijJoXraUt78-45" value="1" style="edgeLabel;resizable=0;html=1;align=right;verticalAlign=bottom;labelBackgroundColor=none;" connectable="0" vertex="1" parent="Dggb_0L5YijJoXraUt78-43">
          <mxGeometry x="1" relative="1" as="geometry">
            <mxPoint x="10" y="-3" as="offset" />
          </mxGeometry>
        </mxCell>
        <mxCell id="Dggb_0L5YijJoXraUt78-49" value="" style="endArrow=none;html=1;edgeStyle=orthogonalEdgeStyle;rounded=0;exitX=1;exitY=0.5;exitDx=0;exitDy=0;entryX=0.5;entryY=0;entryDx=0;entryDy=0;" edge="1" parent="1" source="2KOE_bNOq0SQkTFNPbul-7" target="2KOE_bNOq0SQkTFNPbul-28">
          <mxGeometry relative="1" as="geometry">
            <mxPoint x="380" y="180" as="sourcePoint" />
            <mxPoint x="585" y="250" as="targetPoint" />
            <Array as="points">
              <mxPoint x="440" y="165" />
              <mxPoint x="440" y="240" />
              <mxPoint x="560" y="240" />
            </Array>
          </mxGeometry>
        </mxCell>
        <mxCell id="Dggb_0L5YijJoXraUt78-50" value="1" style="edgeLabel;resizable=0;html=1;align=left;verticalAlign=bottom;labelBackgroundColor=none;" connectable="0" vertex="1" parent="Dggb_0L5YijJoXraUt78-49">
          <mxGeometry x="-1" relative="1" as="geometry">
            <mxPoint x="4" y="2" as="offset" />
          </mxGeometry>
        </mxCell>
        <mxCell id="Dggb_0L5YijJoXraUt78-51" value="0..*" style="edgeLabel;resizable=0;html=1;align=right;verticalAlign=bottom;labelBackgroundColor=none;" connectable="0" vertex="1" parent="Dggb_0L5YijJoXraUt78-49">
          <mxGeometry x="1" relative="1" as="geometry">
            <mxPoint x="20" y="-3" as="offset" />
          </mxGeometry>
        </mxCell>
        <mxCell id="Dggb_0L5YijJoXraUt78-52" value="" style="endArrow=none;html=1;edgeStyle=orthogonalEdgeStyle;rounded=0;exitX=0.5;exitY=1.002;exitDx=0;exitDy=0;exitPerimeter=0;entryX=0.5;entryY=0;entryDx=0;entryDy=0;" edge="1" parent="1" source="2KOE_bNOq0SQkTFNPbul-7" target="2KOE_bNOq0SQkTFNPbul-36">
          <mxGeometry relative="1" as="geometry">
            <mxPoint x="295" y="280" as="sourcePoint" />
            <mxPoint x="290" y="260" as="targetPoint" />
            <Array as="points" />
          </mxGeometry>
        </mxCell>
        <mxCell id="Dggb_0L5YijJoXraUt78-53" value="1" style="edgeLabel;resizable=0;html=1;align=left;verticalAlign=bottom;labelBackgroundColor=none;" connectable="0" vertex="1" parent="Dggb_0L5YijJoXraUt78-52">
          <mxGeometry x="-1" relative="1" as="geometry">
            <mxPoint y="22" as="offset" />
          </mxGeometry>
        </mxCell>
        <mxCell id="Dggb_0L5YijJoXraUt78-54" value="0..*" style="edgeLabel;resizable=0;html=1;align=right;verticalAlign=bottom;labelBackgroundColor=none;" connectable="0" vertex="1" parent="Dggb_0L5YijJoXraUt78-52">
          <mxGeometry x="1" relative="1" as="geometry">
            <mxPoint x="21" y="-3" as="offset" />
          </mxGeometry>
        </mxCell>
        <mxCell id="Dggb_0L5YijJoXraUt78-58" value="" style="endArrow=none;html=1;edgeStyle=orthogonalEdgeStyle;rounded=0;entryX=0;entryY=0.5;entryDx=0;entryDy=0;exitX=1;exitY=0.5;exitDx=0;exitDy=0;" edge="1" parent="1" source="2KOE_bNOq0SQkTFNPbul-39">
          <mxGeometry relative="1" as="geometry">
            <mxPoint x="380" y="618" as="sourcePoint" />
            <mxPoint x="480" y="618" as="targetPoint" />
            <Array as="points">
              <mxPoint x="420" y="404" />
              <mxPoint x="420" y="618" />
            </Array>
          </mxGeometry>
        </mxCell>
        <mxCell id="Dggb_0L5YijJoXraUt78-59" value="1" style="edgeLabel;resizable=0;html=1;align=left;verticalAlign=bottom;labelBackgroundColor=none;" connectable="0" vertex="1" parent="Dggb_0L5YijJoXraUt78-58">
          <mxGeometry x="-1" relative="1" as="geometry">
            <mxPoint x="2" y="1" as="offset" />
          </mxGeometry>
        </mxCell>
        <mxCell id="Dggb_0L5YijJoXraUt78-60" value="1" style="edgeLabel;resizable=0;html=1;align=right;verticalAlign=bottom;labelBackgroundColor=none;" connectable="0" vertex="1" parent="Dggb_0L5YijJoXraUt78-58">
          <mxGeometry x="1" relative="1" as="geometry">
            <mxPoint x="-4" y="1" as="offset" />
          </mxGeometry>
        </mxCell>
        <mxCell id="Dggb_0L5YijJoXraUt78-61" value="" style="endArrow=none;html=1;edgeStyle=orthogonalEdgeStyle;rounded=0;exitX=0.5;exitY=1;exitDx=0;exitDy=0;entryX=0.5;entryY=0;entryDx=0;entryDy=0;" edge="1" parent="1" source="2KOE_bNOq0SQkTFNPbul-28" target="2KOE_bNOq0SQkTFNPbul-32">
          <mxGeometry relative="1" as="geometry">
            <mxPoint x="559.86" y="430" as="sourcePoint" />
            <mxPoint x="559.86" y="540" as="targetPoint" />
            <Array as="points" />
          </mxGeometry>
        </mxCell>
        <mxCell id="Dggb_0L5YijJoXraUt78-62" value="1" style="edgeLabel;resizable=0;html=1;align=left;verticalAlign=bottom;labelBackgroundColor=none;" connectable="0" vertex="1" parent="Dggb_0L5YijJoXraUt78-61">
          <mxGeometry x="-1" relative="1" as="geometry">
            <mxPoint y="22" as="offset" />
          </mxGeometry>
        </mxCell>
        <mxCell id="Dggb_0L5YijJoXraUt78-63" value="1" style="edgeLabel;resizable=0;html=1;align=right;verticalAlign=bottom;labelBackgroundColor=none;" connectable="0" vertex="1" parent="Dggb_0L5YijJoXraUt78-61">
          <mxGeometry x="1" relative="1" as="geometry">
            <mxPoint x="10" y="-3" as="offset" />
          </mxGeometry>
        </mxCell>
        <mxCell id="Dggb_0L5YijJoXraUt78-64" value="" style="endArrow=none;html=1;edgeStyle=orthogonalEdgeStyle;rounded=0;entryX=0.5;entryY=0;entryDx=0;entryDy=0;exitX=0.499;exitY=1.012;exitDx=0;exitDy=0;exitPerimeter=0;" edge="1" parent="1" source="2KOE_bNOq0SQkTFNPbul-23" target="2KOE_bNOq0SQkTFNPbul-24">
          <mxGeometry relative="1" as="geometry">
            <mxPoint x="829.71" y="460" as="sourcePoint" />
            <mxPoint x="829.71" y="530" as="targetPoint" />
          </mxGeometry>
        </mxCell>
        <mxCell id="Dggb_0L5YijJoXraUt78-65" value="1" style="edgeLabel;resizable=0;html=1;align=left;verticalAlign=bottom;labelBackgroundColor=none;" connectable="0" vertex="1" parent="Dggb_0L5YijJoXraUt78-64">
          <mxGeometry x="-1" relative="1" as="geometry">
            <mxPoint y="22" as="offset" />
          </mxGeometry>
        </mxCell>
        <mxCell id="Dggb_0L5YijJoXraUt78-66" value="1" style="edgeLabel;resizable=0;html=1;align=right;verticalAlign=bottom;labelBackgroundColor=none;" connectable="0" vertex="1" parent="Dggb_0L5YijJoXraUt78-64">
          <mxGeometry x="1" relative="1" as="geometry">
            <mxPoint x="10" y="-3" as="offset" />
          </mxGeometry>
        </mxCell>
        <mxCell id="Dggb_0L5YijJoXraUt78-67" value="" style="endArrow=none;html=1;edgeStyle=orthogonalEdgeStyle;rounded=0;exitX=1;exitY=0.5;exitDx=0;exitDy=0;entryX=0;entryY=0.5;entryDx=0;entryDy=0;strokeColor=none;" edge="1" parent="1">
          <mxGeometry relative="1" as="geometry">
            <mxPoint x="640" y="575" as="sourcePoint" />
            <mxPoint x="760" y="695" as="targetPoint" />
          </mxGeometry>
        </mxCell>
        <mxCell id="Dggb_0L5YijJoXraUt78-68" value="1" style="edgeLabel;resizable=0;html=1;align=left;verticalAlign=bottom;labelBackgroundColor=none;" connectable="0" vertex="1" parent="Dggb_0L5YijJoXraUt78-67">
          <mxGeometry x="-1" relative="1" as="geometry">
            <mxPoint x="26" y="29" as="offset" />
          </mxGeometry>
        </mxCell>
        <mxCell id="Dggb_0L5YijJoXraUt78-69" value="1..*" style="edgeLabel;resizable=0;html=1;align=right;verticalAlign=bottom;labelBackgroundColor=none;" connectable="0" vertex="1" parent="Dggb_0L5YijJoXraUt78-67">
          <mxGeometry x="1" relative="1" as="geometry">
            <mxPoint x="-14" y="-91" as="offset" />
          </mxGeometry>
        </mxCell>
        <mxCell id="Dggb_0L5YijJoXraUt78-75" value="" style="endArrow=none;html=1;edgeStyle=orthogonalEdgeStyle;rounded=0;exitX=0;exitY=0.5;exitDx=0;exitDy=0;entryX=0.497;entryY=0.995;entryDx=0;entryDy=0;entryPerimeter=0;" edge="1" parent="1" source="2KOE_bNOq0SQkTFNPbul-5" target="2KOE_bNOq0SQkTFNPbul-35">
          <mxGeometry relative="1" as="geometry">
            <mxPoint x="210" y="70.01" as="sourcePoint" />
            <mxPoint x="560" y="790" as="targetPoint" />
            <Array as="points">
              <mxPoint x="210" y="53" />
              <mxPoint x="120" y="53" />
              <mxPoint x="120" y="800" />
              <mxPoint x="560" y="800" />
            </Array>
          </mxGeometry>
        </mxCell>
        <mxCell id="Dggb_0L5YijJoXraUt78-76" value="1" style="edgeLabel;resizable=0;html=1;align=left;verticalAlign=bottom;labelBackgroundColor=none;" connectable="0" vertex="1" parent="Dggb_0L5YijJoXraUt78-75">
          <mxGeometry x="-1" relative="1" as="geometry">
            <mxPoint x="-14" y="11" as="offset" />
          </mxGeometry>
        </mxCell>
        <mxCell id="Dggb_0L5YijJoXraUt78-77" value="0..*" style="edgeLabel;resizable=0;html=1;align=right;verticalAlign=bottom;labelBackgroundColor=none;" connectable="0" vertex="1" parent="Dggb_0L5YijJoXraUt78-75">
          <mxGeometry x="1" relative="1" as="geometry">
            <mxPoint x="20" y="22" as="offset" />
          </mxGeometry>
        </mxCell>
        <mxCell id="2KOE_bNOq0SQkTFNPbul-3" value="" style="endArrow=diamondThin;endFill=0;endSize=24;html=1;rounded=0;exitX=0;exitY=0.5;exitDx=0;exitDy=0;entryX=1;entryY=0.5;entryDx=0;entryDy=0;" edge="1" parent="1" source="2KOE_bNOq0SQkTFNPbul-25" target="2KOE_bNOq0SQkTFNPbul-33">
          <mxGeometry width="160" relative="1" as="geometry">
            <mxPoint x="730" y="627.5" as="sourcePoint" />
            <mxPoint x="660" y="612.5" as="targetPoint" />
          </mxGeometry>
        </mxCell>
        <mxCell id="2KOE_bNOq0SQkTFNPbul-4" value="user" style="swimlane;fontStyle=1;align=center;verticalAlign=top;childLayout=stackLayout;horizontal=1;startSize=26;horizontalStack=0;resizeParent=1;resizeParentMax=0;resizeLast=0;collapsible=1;marginBottom=0;whiteSpace=wrap;html=1;" vertex="1" parent="1">
          <mxGeometry x="210" y="-60" width="160" height="280" as="geometry" />
        </mxCell>
        <mxCell id="2KOE_bNOq0SQkTFNPbul-5" value="- uerID: string&lt;div&gt;- password: string&lt;br&gt;&lt;/div&gt;&lt;div&gt;- name: string&lt;/div&gt;&lt;div&gt;&lt;i&gt;- &lt;/i&gt;address: string&lt;/div&gt;&lt;div&gt;- telephoneNumber: int&lt;br&gt;&lt;/div&gt;&lt;div&gt;- email: string&lt;/div&gt;&lt;div&gt;- paymentMethods: List&amp;lt;PaymentMethod&amp;gt;&lt;br&gt;&lt;/div&gt;&lt;div&gt;-&amp;nbsp;deliveryAddresses: List&amp;lt;DeliveryAddress&amp;gt;&lt;/div&gt;" style="text;strokeColor=none;fillColor=none;align=left;verticalAlign=top;spacingLeft=4;spacingRight=4;overflow=hidden;rotatable=0;points=[[0,0.5],[1,0.5]];portConstraint=eastwest;whiteSpace=wrap;html=1;" vertex="1" parent="2KOE_bNOq0SQkTFNPbul-4">
          <mxGeometry y="26" width="160" height="164" as="geometry" />
        </mxCell>
        <mxCell id="2KOE_bNOq0SQkTFNPbul-6" value="" style="line;strokeWidth=1;fillColor=none;align=left;verticalAlign=middle;spacingTop=-1;spacingLeft=3;spacingRight=3;rotatable=0;labelPosition=right;points=[];portConstraint=eastwest;strokeColor=inherit;" vertex="1" parent="2KOE_bNOq0SQkTFNPbul-4">
          <mxGeometry y="190" width="160" height="8" as="geometry" />
        </mxCell>
        <mxCell id="2KOE_bNOq0SQkTFNPbul-7" value="+ login()&lt;div&gt;+ logout()&lt;br&gt;&lt;/div&gt;&lt;div&gt;+ getProfile()&lt;br&gt;&lt;/div&gt;&lt;div&gt;+ registerUser()&lt;br&gt;&lt;/div&gt;&lt;div&gt;+ updateUser()&lt;br&gt;&lt;/div&gt;" style="text;strokeColor=none;fillColor=none;align=left;verticalAlign=top;spacingLeft=4;spacingRight=4;overflow=hidden;rotatable=0;points=[[0,0.5],[1,0.5]];portConstraint=eastwest;whiteSpace=wrap;html=1;" vertex="1" parent="2KOE_bNOq0SQkTFNPbul-4">
          <mxGeometry y="198" width="160" height="82" as="geometry" />
        </mxCell>
        <mxCell id="2KOE_bNOq0SQkTFNPbul-9" value="cart" style="swimlane;fontStyle=1;align=center;verticalAlign=top;childLayout=stackLayout;horizontal=1;startSize=26;horizontalStack=0;resizeParent=1;resizeParentMax=0;resizeLast=0;collapsible=1;marginBottom=0;whiteSpace=wrap;html=1;" vertex="1" parent="1">
          <mxGeometry x="480" y="-10" width="160" height="160" as="geometry" />
        </mxCell>
        <mxCell id="2KOE_bNOq0SQkTFNPbul-10" value="- cartID: int&lt;div&gt;- userID: string&lt;/div&gt;&lt;div&gt;- items: List&amp;lt;cartItem&amp;gt;&lt;br&gt;&lt;/div&gt;" style="text;strokeColor=none;fillColor=none;align=left;verticalAlign=top;spacingLeft=4;spacingRight=4;overflow=hidden;rotatable=0;points=[[0,0.5],[1,0.5]];portConstraint=eastwest;whiteSpace=wrap;html=1;" vertex="1" parent="2KOE_bNOq0SQkTFNPbul-9">
          <mxGeometry y="26" width="160" height="54" as="geometry" />
        </mxCell>
        <mxCell id="2KOE_bNOq0SQkTFNPbul-11" value="" style="line;strokeWidth=1;fillColor=none;align=left;verticalAlign=middle;spacingTop=-1;spacingLeft=3;spacingRight=3;rotatable=0;labelPosition=right;points=[];portConstraint=eastwest;strokeColor=inherit;" vertex="1" parent="2KOE_bNOq0SQkTFNPbul-9">
          <mxGeometry y="80" width="160" height="8" as="geometry" />
        </mxCell>
        <mxCell id="2KOE_bNOq0SQkTFNPbul-12" value="&lt;div&gt;+ getCart()&lt;br&gt;&lt;/div&gt;&lt;div&gt;+ addCartItem()&lt;div&gt;+ updateCartItem()&lt;br&gt;&lt;/div&gt;&lt;div&gt;+ deleteCartItem()&lt;/div&gt;&lt;/div&gt;" style="text;strokeColor=none;fillColor=none;align=left;verticalAlign=top;spacingLeft=4;spacingRight=4;overflow=hidden;rotatable=0;points=[[0,0.5],[1,0.5]];portConstraint=eastwest;whiteSpace=wrap;html=1;" vertex="1" parent="2KOE_bNOq0SQkTFNPbul-9">
          <mxGeometry y="88" width="160" height="72" as="geometry" />
        </mxCell>
        <mxCell id="2KOE_bNOq0SQkTFNPbul-13" value="" style="group" connectable="0" vertex="1" parent="1">
          <mxGeometry x="640" y="255" as="geometry" />
        </mxCell>
        <mxCell id="Dggb_0L5YijJoXraUt78-40" value="" style="endArrow=none;html=1;edgeStyle=orthogonalEdgeStyle;rounded=0;exitX=1;exitY=0.5;exitDx=0;exitDy=0;entryX=0;entryY=0.5;entryDx=0;entryDy=0;strokeColor=none;" edge="1" parent="2KOE_bNOq0SQkTFNPbul-13">
          <mxGeometry relative="1" as="geometry">
            <mxPoint as="sourcePoint" />
            <mxPoint x="110" y="-162" as="targetPoint" />
          </mxGeometry>
        </mxCell>
        <mxCell id="Dggb_0L5YijJoXraUt78-41" value="1" style="edgeLabel;resizable=0;html=1;align=left;verticalAlign=bottom;labelBackgroundColor=none;" connectable="0" vertex="1" parent="Dggb_0L5YijJoXraUt78-40">
          <mxGeometry x="-1" relative="1" as="geometry">
            <mxPoint x="30" y="-211" as="offset" />
          </mxGeometry>
        </mxCell>
        <mxCell id="Dggb_0L5YijJoXraUt78-42" value="0..*" style="edgeLabel;resizable=0;html=1;align=right;verticalAlign=bottom;labelBackgroundColor=none;" connectable="0" vertex="1" parent="Dggb_0L5YijJoXraUt78-40">
          <mxGeometry x="1" relative="1" as="geometry">
            <mxPoint x="-5" y="-49" as="offset" />
          </mxGeometry>
        </mxCell>
        <mxCell id="2KOE_bNOq0SQkTFNPbul-1" value="" style="endArrow=diamondThin;endFill=0;endSize=24;html=1;rounded=0;exitX=0;exitY=0.5;exitDx=0;exitDy=0;entryX=1;entryY=0.5;entryDx=0;entryDy=0;" edge="1" parent="1" source="2KOE_bNOq0SQkTFNPbul-15" target="2KOE_bNOq0SQkTFNPbul-10">
          <mxGeometry width="160" relative="1" as="geometry">
            <mxPoint x="750" y="53" as="sourcePoint" />
            <mxPoint x="640" y="215" as="targetPoint" />
          </mxGeometry>
        </mxCell>
        <mxCell id="2KOE_bNOq0SQkTFNPbul-14" value="cart_item" style="swimlane;fontStyle=1;align=center;verticalAlign=top;childLayout=stackLayout;horizontal=1;startSize=26;horizontalStack=0;resizeParent=1;resizeParentMax=0;resizeLast=0;collapsible=1;marginBottom=0;whiteSpace=wrap;html=1;" vertex="1" parent="1">
          <mxGeometry x="750" y="-10" width="160" height="120" as="geometry" />
        </mxCell>
        <mxCell id="2KOE_bNOq0SQkTFNPbul-15" value="&lt;div&gt;&lt;span style=&quot;background-color: initial;&quot;&gt;- cartID: int&lt;/span&gt;&lt;br&gt;&lt;/div&gt;&lt;div&gt;- productID: int&lt;/div&gt;&lt;div&gt;- quantity: int&lt;br&gt;&lt;/div&gt;&lt;div&gt;&lt;br&gt;&lt;/div&gt;" style="text;strokeColor=none;fillColor=none;align=left;verticalAlign=top;spacingLeft=4;spacingRight=4;overflow=hidden;rotatable=0;points=[[0,0.5],[1,0.5]];portConstraint=eastwest;whiteSpace=wrap;html=1;" vertex="1" parent="2KOE_bNOq0SQkTFNPbul-14">
          <mxGeometry y="26" width="160" height="54" as="geometry" />
        </mxCell>
        <mxCell id="2KOE_bNOq0SQkTFNPbul-16" value="" style="line;strokeWidth=1;fillColor=none;align=left;verticalAlign=middle;spacingTop=-1;spacingLeft=3;spacingRight=3;rotatable=0;labelPosition=right;points=[];portConstraint=eastwest;strokeColor=inherit;" vertex="1" parent="2KOE_bNOq0SQkTFNPbul-14">
          <mxGeometry y="80" width="160" height="8" as="geometry" />
        </mxCell>
        <mxCell id="2KOE_bNOq0SQkTFNPbul-17" value="&lt;div&gt;&lt;br&gt;&lt;/div&gt;" style="text;strokeColor=none;fillColor=none;align=left;verticalAlign=top;spacingLeft=4;spacingRight=4;overflow=hidden;rotatable=0;points=[[0,0.5],[1,0.5]];portConstraint=eastwest;whiteSpace=wrap;html=1;" vertex="1" parent="2KOE_bNOq0SQkTFNPbul-14">
          <mxGeometry y="88" width="160" height="32" as="geometry" />
        </mxCell>
        <mxCell id="2KOE_bNOq0SQkTFNPbul-20" value="product" style="swimlane;fontStyle=1;align=center;verticalAlign=top;childLayout=stackLayout;horizontal=1;startSize=26;horizontalStack=0;resizeParent=1;resizeParentMax=0;resizeLast=0;collapsible=1;marginBottom=0;whiteSpace=wrap;html=1;" vertex="1" parent="1">
          <mxGeometry x="750" y="280" width="160" height="180" as="geometry" />
        </mxCell>
        <mxCell id="2KOE_bNOq0SQkTFNPbul-21" value="- productID: int&lt;div&gt;- name: string&lt;/div&gt;&lt;div&gt;- description: string&lt;br&gt;&lt;/div&gt;&lt;div&gt;- price: int&lt;/div&gt;&lt;div&gt;&lt;i&gt;- &lt;/i&gt;status: string&lt;/div&gt;&lt;div&gt;- stock: int&lt;/div&gt;" style="text;strokeColor=none;fillColor=none;align=left;verticalAlign=top;spacingLeft=4;spacingRight=4;overflow=hidden;rotatable=0;points=[[0,0.5],[1,0.5]];portConstraint=eastwest;whiteSpace=wrap;html=1;" vertex="1" parent="2KOE_bNOq0SQkTFNPbul-20">
          <mxGeometry y="26" width="160" height="94" as="geometry" />
        </mxCell>
        <mxCell id="2KOE_bNOq0SQkTFNPbul-22" value="" style="line;strokeWidth=1;fillColor=none;align=left;verticalAlign=middle;spacingTop=-1;spacingLeft=3;spacingRight=3;rotatable=0;labelPosition=right;points=[];portConstraint=eastwest;strokeColor=inherit;" vertex="1" parent="2KOE_bNOq0SQkTFNPbul-20">
          <mxGeometry y="120" width="160" height="8" as="geometry" />
        </mxCell>
        <mxCell id="2KOE_bNOq0SQkTFNPbul-23" value="&lt;div&gt;+ addProduct()&lt;br&gt;&lt;/div&gt;&lt;div&gt;+ update&lt;span style=&quot;background-color: initial;&quot;&gt;Product&lt;/span&gt;&lt;span style=&quot;background-color: initial;&quot;&gt;()&lt;/span&gt;&lt;/div&gt;&lt;div&gt;+ delete&lt;span style=&quot;background-color: initial;&quot;&gt;Product&lt;/span&gt;&lt;span style=&quot;background-color: initial;&quot;&gt;()&lt;/span&gt;&lt;/div&gt;" style="text;strokeColor=none;fillColor=none;align=left;verticalAlign=top;spacingLeft=4;spacingRight=4;overflow=hidden;rotatable=0;points=[[0,0.5],[1,0.5]];portConstraint=eastwest;whiteSpace=wrap;html=1;" vertex="1" parent="2KOE_bNOq0SQkTFNPbul-20">
          <mxGeometry y="128" width="160" height="52" as="geometry" />
        </mxCell>
        <mxCell id="2KOE_bNOq0SQkTFNPbul-24" value="orderItem" style="swimlane;fontStyle=1;align=center;verticalAlign=top;childLayout=stackLayout;horizontal=1;startSize=26;horizontalStack=0;resizeParent=1;resizeParentMax=0;resizeLast=0;collapsible=1;marginBottom=0;whiteSpace=wrap;html=1;" vertex="1" parent="1">
          <mxGeometry x="750" y="564" width="160" height="120" as="geometry" />
        </mxCell>
        <mxCell id="2KOE_bNOq0SQkTFNPbul-25" value="- orderID: int&lt;div&gt;- productID: int&lt;/div&gt;&lt;div&gt;- quantity: int&lt;span style=&quot;background-color: initial; text-wrap: nowrap; color: rgba(0, 0, 0, 0); font-family: monospace; font-size: 0px;&quot;&gt;%3CmxGraphModel%3E%3Croot%3E%3CmxCell%20id%3D%220%22%2F%3E%3CmxCell%20id%3D%221%22%20parent%3D%220%22%2F%3E%3CmxCell%20id%3D%222%22%20value%3D%22%E5%95%86%E5%93%81%22%20style%3D%22swimlane%3BfontStyle%3D1%3Balign%3Dcenter%3BverticalAlign%3Dtop%3BchildLayout%3DstackLayout%3Bhorizontal%3D1%3BstartSize%3D26%3BhorizontalStack%3D0%3BresizeParent%3D1%3BresizeParentMax%3D0%3BresizeLast%3D0%3Bcollapsible%3D1%3BmarginBottom%3D0%3BwhiteSpace%3Dwrap%3Bhtml%3D1%3B%22%20vertex%3D%221%22%20parent%3D%221%22%3E%3CmxGeometry%20x%3D%22750%22%20y%3D%22280%22%20width%3D%22160%22%20height%3D%22170%22%20as%3D%22geometry%22%2F%3E%3C%2FmxCell%3E%3CmxCell%20id%3D%223%22%20value%3D%22-%20productID%3A%20string%26lt%3Bdiv%26gt%3B-%20name%3A%20string%26lt%3B%2Fdiv%26gt%3B%26lt%3Bdiv%26gt%3B-%20description%3A%20string%26lt%3Bbr%26gt%3B%26lt%3B%2Fdiv%26gt%3B%26lt%3Bdiv%26gt%3B-%20price%3A%20int%26lt%3Bbr%26gt%3B%26lt%3B%2Fdiv%26gt%3B%26lt%3Bdiv%26gt%3B-%20stockID%3A%20int%26lt%3Bbr%26gt%3B%26lt%3B%2Fdiv%26gt%3B%26lt%3Bdiv%26gt%3B-%20stock%3A%20int%26lt%3B%2Fdiv%26gt%3B%22%20style%3D%22text%3BstrokeColor%3Dnone%3BfillColor%3Dnone%3Balign%3Dleft%3BverticalAlign%3Dtop%3BspacingLeft%3D4%3BspacingRight%3D4%3Boverflow%3Dhidden%3Brotatable%3D0%3Bpoints%3D%5B%5B0%2C0.5%5D%2C%5B1%2C0.5%5D%5D%3BportConstraint%3Deastwest%3BwhiteSpace%3Dwrap%3Bhtml%3D1%3B%22%20vertex%3D%221%22%20parent%3D%222%22%3E%3CmxGeometry%20y%3D%2226%22%20width%3D%22160%22%20height%3D%2294%22%20as%3D%22geometry%22%2F%3E%3C%2FmxCell%3E%3CmxCell%20id%3D%224%22%20value%3D%22%22%20style%3D%22line%3BstrokeWidth%3D1%3BfillColor%3Dnone%3Balign%3Dleft%3BverticalAlign%3Dmiddle%3BspacingTop%3D-1%3BspacingLeft%3D3%3BspacingRight%3D3%3Brotatable%3D0%3BlabelPosition%3Dright%3Bpoints%3D%5B%5D%3BportConstraint%3Deastwest%3BstrokeColor%3Dinherit%3B%22%20vertex%3D%221%22%20parent%3D%222%22%3E%3CmxGeometry%20y%3D%22120%22%20width%3D%22160%22%20height%3D%228%22%20as%3D%22geometry%22%2F%3E%3C%2FmxCell%3E%3CmxCell%20id%3D%225%22%20value%3D%22%26lt%3Bdiv%26gt%3B%26lt%3Bbr%26gt%3B%26lt%3B%2Fdiv%26gt%3B%22%20style%3D%22text%3BstrokeColor%3Dnone%3BfillColor%3Dnone%3Balign%3Dleft%3BverticalAlign%3Dtop%3BspacingLeft%3D4%3BspacingRight%3D4%3Boverflow%3Dhidden%3Brotatable%3D0%3Bpoints%3D%5B%5B0%2C0.5%5D%2C%5B1%2C0.5%5D%5D%3BportConstraint%3Deastwest%3BwhiteSpace%3Dwrap%3Bhtml%3D1%3B%22%20vertex%3D%221%22%20parent%3D%222%22%3E%3CmxGeometry%20y%3D%22128%22%20width%3D%22160%22%20height%3D%2242%22%20as%3D%22geometry%22%2F%3E%3C%2FmxCell%3E%3C%2Froot%3E%3C%2FmxGraphModel%3E&lt;/span&gt;&lt;span style=&quot;background-color: initial; text-wrap: nowrap; color: rgba(0, 0, 0, 0); font-family: monospace; font-size: 0px;&quot;&gt;%3CmxGraphModel%3E%3Croot%3E%3CmxCell%20id%3D%220%22%2F%3E%3CmxCell%20id%3D%221%22%20parent%3D%220%22%2F%3E%3CmxCell%20id%3D%222%22%20value%3D%22%E5%95%86%E5%93%81%22%20style%3D%22swimlane%3BfontStyle%3D1%3Balign%3Dcenter%3BverticalAlign%3Dtop%3BchildLayout%3DstackLayout%3Bhorizontal%3D1%3BstartSize%3D26%3BhorizontalStack%3D0%3BresizeParent%3D1%3BresizeParentMax%3D0%3BresizeLast%3D0%3Bcollapsible%3D1%3BmarginBottom%3D0%3BwhiteSpace%3Dwrap%3Bhtml%3D1%3B%22%20vertex%3D%221%22%20parent%3D%221%22%3E%3CmxGeometry%20x%3D%22750%22%20y%3D%22280%22%20width%3D%22160%22%20height%3D%22170%22%20as%3D%22geometry%22%2F%3E%3C%2FmxCell%3E%3CmxCell%20id%3D%223%22%20value%3D%22-%20productID%3A%20string%26lt%3Bdiv%26gt%3B-%20name%3A%20string%26lt%3B%2Fdiv%26gt%3B%26lt%3Bdiv%26gt%3B-%20description%3A%20string%26lt%3Bbr%26gt%3B%26lt%3B%2Fdiv%26gt%3B%26lt%3Bdiv%26gt%3B-%20price%3A%20int%26lt%3Bbr%26gt%3B%26lt%3B%2Fdiv%26gt%3B%26lt%3Bdiv%26gt%3B-%20stockID%3A%20int%26lt%3Bbr%26gt%3B%26lt%3B%2Fdiv%26gt%3B%26lt%3Bdiv%26gt%3B-%20stock%3A%20int%26lt%3B%2Fdiv%26gt%3B%22%20style%3D%22text%3BstrokeColor%3Dnone%3BfillColor%3Dnone%3Balign%3Dleft%3BverticalAlign%3Dtop%3BspacingLeft%3D4%3BspacingRight%3D4%3Boverflow%3Dhidden%3Brotatable%3D0%3Bpoints%3D%5B%5B0%2C0.5%5D%2C%5B1%2C0.5%5D%5D%3BportConstraint%3Deastwest%3BwhiteSpace%3Dwrap%3Bhtml%3D1%3B%22%20vertex%3D%221%22%20parent%3D%222%22%3E%3CmxGeometry%20y%3D%2226%22%20width%3D%22160%22%20height%3D%2294%22%20as%3D%22geometry%22%2F%3E%3C%2FmxCell%3E%3CmxCell%20id%3D%224%22%20value%3D%22%22%20style%3D%22line%3BstrokeWidth%3D1%3BfillColor%3Dnone%3Balign%3Dleft%3BverticalAlign%3Dmiddle%3BspacingTop%3D-1%3BspacingLeft%3D3%3BspacingRight%3D3%3Brotatable%3D0%3BlabelPosition%3Dright%3Bpoints%3D%5B%5D%3BportConstraint%3Deastwest%3BstrokeColor%3Dinherit%3B%22%20vertex%3D%221%22%20parent%3D%222%22%3E%3CmxGeometry%20y%3D%22120%22%20width%3D%22160%22%20height%3D%228%22%20as%3D%22geometry%22%2F%3E%3C%2FmxCell%3E%3CmxCell%20id%3D%225%22%20value%3D%22%26lt%3Bdiv%26gt%3B%26lt%3Bbr%26gt%3B%26lt%3B%2Fdiv%26gt%3B%22%20style%3D%22text%3BstrokeColor%3Dnone%3BfillColor%3Dnone%3Balign%3Dleft%3BverticalAlign%3Dtop%3BspacingLeft%3D4%3BspacingRight%3D4%3Boverflow%3Dhidden%3Brotatable%3D0%3Bpoints%3D%5B%5B0%2C0.5%5D%2C%5B1%2C0.5%5D%5D%3BportConstraint%3Deastwest%3BwhiteSpace%3Dwrap%3Bhtml%3D1%3B%22%20vertex%3D%221%22%20parent%3D%222%22%3E%3CmxGeometry%20y%3D%22128%22%20width%3D%22160%22%20height%3D%2242%22%20as%3D%22geometry%22%2F%3E%3C%2FmxCell%3E%3C%2Froot%3E%3C%2FmxGraphModel%3E&lt;/span&gt;&lt;/div&gt;" style="text;strokeColor=none;fillColor=none;align=left;verticalAlign=top;spacingLeft=4;spacingRight=4;overflow=hidden;rotatable=0;points=[[0,0.5],[1,0.5]];portConstraint=eastwest;whiteSpace=wrap;html=1;" vertex="1" parent="2KOE_bNOq0SQkTFNPbul-24">
          <mxGeometry y="26" width="160" height="54" as="geometry" />
        </mxCell>
        <mxCell id="2KOE_bNOq0SQkTFNPbul-26" value="" style="line;strokeWidth=1;fillColor=none;align=left;verticalAlign=middle;spacingTop=-1;spacingLeft=3;spacingRight=3;rotatable=0;labelPosition=right;points=[];portConstraint=eastwest;strokeColor=inherit;" vertex="1" parent="2KOE_bNOq0SQkTFNPbul-24">
          <mxGeometry y="80" width="160" height="8" as="geometry" />
        </mxCell>
        <mxCell id="2KOE_bNOq0SQkTFNPbul-27" value="&amp;nbsp;" style="text;strokeColor=none;fillColor=none;align=left;verticalAlign=top;spacingLeft=4;spacingRight=4;overflow=hidden;rotatable=0;points=[[0,0.5],[1,0.5]];portConstraint=eastwest;whiteSpace=wrap;html=1;" vertex="1" parent="2KOE_bNOq0SQkTFNPbul-24">
          <mxGeometry y="88" width="160" height="32" as="geometry" />
        </mxCell>
        <mxCell id="2KOE_bNOq0SQkTFNPbul-28" value="deliveryAddress" style="swimlane;fontStyle=1;align=center;verticalAlign=top;childLayout=stackLayout;horizontal=1;startSize=26;horizontalStack=0;resizeParent=1;resizeParentMax=0;resizeLast=0;collapsible=1;marginBottom=0;whiteSpace=wrap;html=1;" vertex="1" parent="1">
          <mxGeometry x="480" y="280" width="160" height="180" as="geometry" />
        </mxCell>
        <mxCell id="2KOE_bNOq0SQkTFNPbul-29" value="- deliveryAddressID: int&lt;div&gt;- userID: string&lt;/div&gt;&lt;div&gt;- postalCode: string&lt;br&gt;&lt;/div&gt;&lt;div&gt;- deliveryAddress: string&lt;/div&gt;&lt;div&gt;- isDefault: boolean&lt;/div&gt;" style="text;strokeColor=none;fillColor=none;align=left;verticalAlign=top;spacingLeft=4;spacingRight=4;overflow=hidden;rotatable=0;points=[[0,0.5],[1,0.5]];portConstraint=eastwest;whiteSpace=wrap;html=1;" vertex="1" parent="2KOE_bNOq0SQkTFNPbul-28">
          <mxGeometry y="26" width="160" height="74" as="geometry" />
        </mxCell>
        <mxCell id="2KOE_bNOq0SQkTFNPbul-30" value="" style="line;strokeWidth=1;fillColor=none;align=left;verticalAlign=middle;spacingTop=-1;spacingLeft=3;spacingRight=3;rotatable=0;labelPosition=right;points=[];portConstraint=eastwest;strokeColor=inherit;" vertex="1" parent="2KOE_bNOq0SQkTFNPbul-28">
          <mxGeometry y="100" width="160" height="8" as="geometry" />
        </mxCell>
        <mxCell id="2KOE_bNOq0SQkTFNPbul-31" value="&lt;div&gt;&lt;div&gt;+ getDeliveryAdress()&lt;br&gt;&lt;/div&gt;&lt;div&gt;+ register&lt;span style=&quot;background-color: initial;&quot;&gt;Delivery&lt;/span&gt;&lt;span style=&quot;background-color: initial;&quot;&gt;Adress&lt;/span&gt;&lt;span style=&quot;background-color: initial;&quot;&gt;()&lt;/span&gt;&lt;/div&gt;&lt;div&gt;+ update&lt;span style=&quot;background-color: initial;&quot;&gt;Delivery&lt;/span&gt;&lt;span style=&quot;background-color: initial;&quot;&gt;Adress&lt;/span&gt;&lt;span style=&quot;background-color: initial;&quot;&gt;()&lt;/span&gt;&lt;/div&gt;&lt;/div&gt;&lt;div&gt;&lt;i&gt;+ &lt;/i&gt;delete&lt;span style=&quot;background-color: initial;&quot;&gt;Delivery&lt;/span&gt;&lt;span style=&quot;background-color: initial;&quot;&gt;Adress&lt;/span&gt;&lt;span style=&quot;background-color: initial;&quot;&gt;()&lt;/span&gt;&lt;/div&gt;" style="text;strokeColor=none;fillColor=none;align=left;verticalAlign=top;spacingLeft=4;spacingRight=4;overflow=hidden;rotatable=0;points=[[0,0.5],[1,0.5]];portConstraint=eastwest;whiteSpace=wrap;html=1;" vertex="1" parent="2KOE_bNOq0SQkTFNPbul-28">
          <mxGeometry y="108" width="160" height="72" as="geometry" />
        </mxCell>
        <mxCell id="2KOE_bNOq0SQkTFNPbul-32" value="order" style="swimlane;fontStyle=1;align=center;verticalAlign=top;childLayout=stackLayout;horizontal=1;startSize=26;horizontalStack=0;resizeParent=1;resizeParentMax=0;resizeLast=0;collapsible=1;marginBottom=0;whiteSpace=wrap;html=1;" vertex="1" parent="1">
          <mxGeometry x="480" y="530" width="160" height="230" as="geometry" />
        </mxCell>
        <mxCell id="2KOE_bNOq0SQkTFNPbul-33" value="- orderID: int&lt;div&gt;- userID: string&lt;br&gt;&lt;div&gt;- purchase_date: string&lt;/div&gt;&lt;div&gt;&lt;i&gt;- &lt;/i&gt;paymentMethodID: string&lt;/div&gt;&lt;div&gt;- deliveryAddressID: string&lt;/div&gt;&lt;div&gt;- totalAmount: int&lt;/div&gt;&lt;/div&gt;&lt;div&gt;&lt;i&gt;- &lt;/i&gt;status: string&lt;/div&gt;&lt;div&gt;- items: List&amp;lt;orderItem&amp;gt;&lt;br&gt;&lt;/div&gt;" style="text;strokeColor=none;fillColor=none;align=left;verticalAlign=top;spacingLeft=4;spacingRight=4;overflow=hidden;rotatable=0;points=[[0,0.5],[1,0.5]];portConstraint=eastwest;whiteSpace=wrap;html=1;" vertex="1" parent="2KOE_bNOq0SQkTFNPbul-32">
          <mxGeometry y="26" width="160" height="124" as="geometry" />
        </mxCell>
        <mxCell id="2KOE_bNOq0SQkTFNPbul-34" value="" style="line;strokeWidth=1;fillColor=none;align=left;verticalAlign=middle;spacingTop=-1;spacingLeft=3;spacingRight=3;rotatable=0;labelPosition=right;points=[];portConstraint=eastwest;strokeColor=inherit;" vertex="1" parent="2KOE_bNOq0SQkTFNPbul-32">
          <mxGeometry y="150" width="160" height="8" as="geometry" />
        </mxCell>
        <mxCell id="2KOE_bNOq0SQkTFNPbul-35" value="&lt;div&gt;+ getOrder()&lt;br&gt;&lt;/div&gt;&lt;div&gt;+ create&lt;span style=&quot;background-color: initial;&quot;&gt;Order&lt;/span&gt;&lt;span style=&quot;background-color: initial;&quot;&gt;()&lt;/span&gt;&lt;/div&gt;&lt;div&gt;+ cancel&lt;span style=&quot;background-color: initial;&quot;&gt;Order&lt;/span&gt;&lt;span style=&quot;background-color: initial;&quot;&gt;()&lt;/span&gt;&lt;/div&gt;&lt;div&gt;&lt;span style=&quot;background-color: initial;&quot;&gt;&lt;i&gt;+ &lt;/i&gt;updateOrderStatus()&lt;/span&gt;&lt;/div&gt;" style="text;strokeColor=none;fillColor=none;align=left;verticalAlign=top;spacingLeft=4;spacingRight=4;overflow=hidden;rotatable=0;points=[[0,0.5],[1,0.5]];portConstraint=eastwest;whiteSpace=wrap;html=1;" vertex="1" parent="2KOE_bNOq0SQkTFNPbul-32">
          <mxGeometry y="158" width="160" height="72" as="geometry" />
        </mxCell>
        <mxCell id="2KOE_bNOq0SQkTFNPbul-36" value="paymentMethod" style="swimlane;fontStyle=1;align=center;verticalAlign=top;childLayout=stackLayout;horizontal=1;startSize=26;horizontalStack=0;resizeParent=1;resizeParentMax=0;resizeLast=0;collapsible=1;marginBottom=0;whiteSpace=wrap;html=1;" vertex="1" parent="1">
          <mxGeometry x="210" y="280" width="160" height="160" as="geometry" />
        </mxCell>
        <mxCell id="2KOE_bNOq0SQkTFNPbul-37" value="- paymentMethodID: int&lt;div&gt;- userID: string&lt;/div&gt;&lt;div&gt;- type: string&lt;/div&gt;" style="text;strokeColor=none;fillColor=none;align=left;verticalAlign=top;spacingLeft=4;spacingRight=4;overflow=hidden;rotatable=0;points=[[0,0.5],[1,0.5]];portConstraint=eastwest;whiteSpace=wrap;html=1;" vertex="1" parent="2KOE_bNOq0SQkTFNPbul-36">
          <mxGeometry y="26" width="160" height="54" as="geometry" />
        </mxCell>
        <mxCell id="2KOE_bNOq0SQkTFNPbul-38" value="" style="line;strokeWidth=1;fillColor=none;align=left;verticalAlign=middle;spacingTop=-1;spacingLeft=3;spacingRight=3;rotatable=0;labelPosition=right;points=[];portConstraint=eastwest;strokeColor=inherit;" vertex="1" parent="2KOE_bNOq0SQkTFNPbul-36">
          <mxGeometry y="80" width="160" height="8" as="geometry" />
        </mxCell>
        <mxCell id="2KOE_bNOq0SQkTFNPbul-39" value="&lt;div&gt;&lt;div&gt;+ getPaymentMethod()&lt;br&gt;&lt;/div&gt;&lt;div&gt;+ registerPaymentMethod()&lt;br&gt;&lt;/div&gt;&lt;div&gt;+ update&lt;span style=&quot;background-color: initial;&quot;&gt;PaymentMethod&lt;/span&gt;&lt;span style=&quot;background-color: initial;&quot;&gt;()&lt;/span&gt;&lt;/div&gt;&lt;/div&gt;&lt;div&gt;+ delete&lt;span style=&quot;background-color: initial;&quot;&gt;PaymentMethod&lt;/span&gt;&lt;span style=&quot;background-color: initial;&quot;&gt;()&lt;/span&gt;&lt;/div&gt;" style="text;strokeColor=none;fillColor=none;align=left;verticalAlign=top;spacingLeft=4;spacingRight=4;overflow=hidden;rotatable=0;points=[[0,0.5],[1,0.5]];portConstraint=eastwest;whiteSpace=wrap;html=1;" vertex="1" parent="2KOE_bNOq0SQkTFNPbul-36">
          <mxGeometry y="88" width="160" height="72" as="geometry" />
        </mxCell>
        <mxCell id="rvtHJ2WEF7bu1YtnGJtD-1" value="CardPayment" style="swimlane;fontStyle=1;align=center;verticalAlign=top;childLayout=stackLayout;horizontal=1;startSize=26;horizontalStack=0;resizeParent=1;resizeParentMax=0;resizeLast=0;collapsible=1;marginBottom=0;whiteSpace=wrap;html=1;" vertex="1" parent="1">
          <mxGeometry x="210" y="560" width="160" height="130" as="geometry" />
        </mxCell>
        <mxCell id="rvtHJ2WEF7bu1YtnGJtD-2" value="&lt;div&gt;- cardNumber: int&lt;/div&gt;&lt;div&gt;&lt;i&gt;- &lt;/i&gt;cardHolderName: string&lt;br&gt;&lt;/div&gt;&lt;div&gt;- expirationDate: dateTime&lt;br&gt;&lt;/div&gt;&lt;div&gt;- cvvCode: int&lt;br&gt;&lt;/div&gt;" style="text;strokeColor=none;fillColor=none;align=left;verticalAlign=top;spacingLeft=4;spacingRight=4;overflow=hidden;rotatable=0;points=[[0,0.5],[1,0.5]];portConstraint=eastwest;whiteSpace=wrap;html=1;" vertex="1" parent="rvtHJ2WEF7bu1YtnGJtD-1">
          <mxGeometry y="26" width="160" height="64" as="geometry" />
        </mxCell>
        <mxCell id="rvtHJ2WEF7bu1YtnGJtD-3" value="" style="line;strokeWidth=1;fillColor=none;align=left;verticalAlign=middle;spacingTop=-1;spacingLeft=3;spacingRight=3;rotatable=0;labelPosition=right;points=[];portConstraint=eastwest;strokeColor=inherit;" vertex="1" parent="rvtHJ2WEF7bu1YtnGJtD-1">
          <mxGeometry y="90" width="160" height="8" as="geometry" />
        </mxCell>
        <mxCell id="rvtHJ2WEF7bu1YtnGJtD-4" value="&amp;nbsp;" style="text;strokeColor=none;fillColor=none;align=left;verticalAlign=top;spacingLeft=4;spacingRight=4;overflow=hidden;rotatable=0;points=[[0,0.5],[1,0.5]];portConstraint=eastwest;whiteSpace=wrap;html=1;" vertex="1" parent="rvtHJ2WEF7bu1YtnGJtD-1">
          <mxGeometry y="98" width="160" height="32" as="geometry" />
        </mxCell>
        <mxCell id="rvtHJ2WEF7bu1YtnGJtD-5" value="" style="endArrow=none;html=1;edgeStyle=orthogonalEdgeStyle;rounded=0;exitX=0.508;exitY=0.991;exitDx=0;exitDy=0;exitPerimeter=0;entryX=0.5;entryY=0;entryDx=0;entryDy=0;strokeColor=none;" edge="1" parent="1" source="2KOE_bNOq0SQkTFNPbul-39" target="rvtHJ2WEF7bu1YtnGJtD-1">
          <mxGeometry relative="1" as="geometry">
            <mxPoint x="380" y="480" as="sourcePoint" />
            <mxPoint x="380" y="580" as="targetPoint" />
            <Array as="points">
              <mxPoint x="290" y="439" />
            </Array>
          </mxGeometry>
        </mxCell>
        <mxCell id="rvtHJ2WEF7bu1YtnGJtD-6" value="1" style="edgeLabel;resizable=0;html=1;align=left;verticalAlign=bottom;labelBackgroundColor=none;" connectable="0" vertex="1" parent="rvtHJ2WEF7bu1YtnGJtD-5">
          <mxGeometry x="-1" relative="1" as="geometry">
            <mxPoint x="-2" y="39" as="offset" />
          </mxGeometry>
        </mxCell>
        <mxCell id="rvtHJ2WEF7bu1YtnGJtD-7" value="1" style="edgeLabel;resizable=0;html=1;align=right;verticalAlign=bottom;labelBackgroundColor=none;" connectable="0" vertex="1" parent="rvtHJ2WEF7bu1YtnGJtD-5">
          <mxGeometry x="1" relative="1" as="geometry">
            <mxPoint x="9" y="-3" as="offset" />
          </mxGeometry>
        </mxCell>
        <mxCell id="rvtHJ2WEF7bu1YtnGJtD-16" value="Extends" style="endArrow=block;endSize=16;endFill=0;html=1;rounded=0;entryX=0.495;entryY=1.003;entryDx=0;entryDy=0;entryPerimeter=0;exitX=0.5;exitY=0;exitDx=0;exitDy=0;" edge="1" parent="1" source="rvtHJ2WEF7bu1YtnGJtD-1" target="2KOE_bNOq0SQkTFNPbul-39">
          <mxGeometry width="160" relative="1" as="geometry">
            <mxPoint x="130" y="500" as="sourcePoint" />
            <mxPoint x="290" y="500" as="targetPoint" />
          </mxGeometry>
        </mxCell>
        <mxCell id="rvtHJ2WEF7bu1YtnGJtD-17" value="" style="endArrow=none;html=1;edgeStyle=orthogonalEdgeStyle;rounded=0;exitX=1;exitY=0.5;exitDx=0;exitDy=0;entryX=0.002;entryY=0.034;entryDx=0;entryDy=0;entryPerimeter=0;" edge="1" parent="1" target="2KOE_bNOq0SQkTFNPbul-33">
          <mxGeometry relative="1" as="geometry">
            <mxPoint x="370" y="190" as="sourcePoint" />
            <mxPoint x="450" y="560" as="targetPoint" />
            <Array as="points">
              <mxPoint x="420" y="190" />
              <mxPoint x="420" y="360" />
              <mxPoint x="450" y="360" />
              <mxPoint x="450" y="560" />
            </Array>
          </mxGeometry>
        </mxCell>
        <mxCell id="rvtHJ2WEF7bu1YtnGJtD-18" value="1" style="edgeLabel;resizable=0;html=1;align=left;verticalAlign=bottom;labelBackgroundColor=none;" connectable="0" vertex="1" parent="rvtHJ2WEF7bu1YtnGJtD-17">
          <mxGeometry x="-1" relative="1" as="geometry">
            <mxPoint x="2" y="1" as="offset" />
          </mxGeometry>
        </mxCell>
        <mxCell id="rvtHJ2WEF7bu1YtnGJtD-19" value="0..*" style="edgeLabel;resizable=0;html=1;align=right;verticalAlign=bottom;labelBackgroundColor=none;" connectable="0" vertex="1" parent="rvtHJ2WEF7bu1YtnGJtD-17">
          <mxGeometry x="1" relative="1" as="geometry">
            <mxPoint x="-4" y="1" as="offset" />
          </mxGeometry>
        </mxCell>
      </root>
    </mxGraphModel>
  </diagram>
</mxfile>
